HIERARCHY
ROOT newVegas:Hips
{
	OFFSET 0.000000 96.330055 9.825774
	CHANNELS 6 Xposition Yposition Zposition Xrotation Yrotation Zrotation
	JOINT newVegas:Pelvis
	{
		OFFSET 0.000000 0.000000 0.000000
		CHANNELS 3 Xrotation Yrotation Zrotation
		JOINT newVegas:LeftUpLeg
		{
			OFFSET 18.735231 -5.666687 -4.541196
			CHANNELS 3 Xrotation Yrotation Zrotation
			JOINT newVegas:LeftLeg
			{
				OFFSET 2.165257 -31.864662 0.493051
				CHANNELS 3 Xrotation Yrotation Zrotation
				JOINT newVegas:LeftFoot
				{
					OFFSET 2.207560 -31.861769 -4.336291
					CHANNELS 3 Xrotation Yrotation Zrotation
					JOINT newVegas:LeftToeBase
					{
						OFFSET 0.942982 -26.721954 15.023476
						CHANNELS 3 Xrotation Yrotation Zrotation
						End Site
						{
							OFFSET 0.000000 30.670130 0.000000
						}
					}
				}
				JOINT newVegas:Left_PantLeg
				{
					OFFSET 1.281483 -8.977982 -1.108870
					CHANNELS 3 Xrotation Yrotation Zrotation
					End Site
					{
						OFFSET 0.000000 20.683853 0.000000
					}
				}
			}
		}
		JOINT newVegas:RightUpLeg
		{
			OFFSET -18.735231 -5.666687 -4.541196
			CHANNELS 3 Xrotation Yrotation Zrotation
			JOINT newVegas:RightLeg
			{
				OFFSET -2.167511 -31.864510 0.493069
				CHANNELS 3 Xrotation Yrotation Zrotation
				JOINT newVegas:RightFoot
				{
					OFFSET -2.205305 -31.861921 -4.336310
					CHANNELS 3 Xrotation Yrotation Zrotation
					JOINT newVegas:RightToeBase
					{
						OFFSET -0.942982 -26.721954 15.023476
						CHANNELS 3 Xrotation Yrotation Zrotation
						End Site
						{
							OFFSET 0.000000 30.670130 0.000000
						}
					}
				}
				JOINT newVegas:Right_PantLeg
				{
					OFFSET -1.279257 -8.978161 -1.108887
					CHANNELS 3 Xrotation Yrotation Zrotation
					End Site
					{
						OFFSET 0.000000 20.683781 0.000000
					}
				}
			}
		}
	}
	JOINT newVegas:Spine
	{
		OFFSET 0.000000 10.200043 -0.299546
		CHANNELS 3 Xrotation Yrotation Zrotation
		JOINT newVegas:Spine1
		{
			OFFSET 0.000000 11.900047 -1.516603
			CHANNELS 3 Xrotation Yrotation Zrotation
			JOINT newVegas:Spine2
			{
				OFFSET 0.000000 13.600052 -2.842519
				CHANNELS 3 Xrotation Yrotation Zrotation
				JOINT newVegas:Neck
				{
					OFFSET 0.000000 9.624100 -2.890091
					CHANNELS 3 Xrotation Yrotation Zrotation
					JOINT newVegas:Head
					{
						OFFSET 0.000000 14.068771 -1.351861
						CHANNELS 3 Xrotation Yrotation Zrotation
						JOINT newVegas:Hair_Back
						{
							OFFSET 0.000000 3.231888 -17.524775
							CHANNELS 3 Xrotation Yrotation Zrotation
							End Site
							{
								OFFSET 0.000000 19.849899 0.000000
							}
						}
						JOINT newVegas:Hair_Front
						{
							OFFSET 0.000000 31.260452 4.573765
							CHANNELS 3 Xrotation Yrotation Zrotation
							JOINT newVegas:Hair_Front1
							{
								OFFSET -0.000000 2.284073 11.993284
								CHANNELS 3 Xrotation Yrotation Zrotation
								JOINT newVegas:Hair_Front2
								{
									OFFSET -0.000000 2.284073 11.993282
									CHANNELS 3 Xrotation Yrotation Zrotation
									End Site
									{
										OFFSET 0.000000 12.208847 0.000000
									}
								}
							}
						}
						JOINT newVegas:Jowel
						{
							OFFSET 0.000000 -7.458237 6.864121
							CHANNELS 3 Xrotation Yrotation Zrotation
							End Site
							{
								OFFSET 0.000000 19.849899 0.000000
							}
						}
					}
				}
				JOINT newVegas:LeftShoulder
				{
					OFFSET 15.263037 10.923431 -0.547705
					CHANNELS 3 Xrotation Yrotation Zrotation
					JOINT newVegas:LeftArm
					{
						OFFSET 25.438639 -2.830658 -13.032501
						CHANNELS 3 Xrotation Yrotation Zrotation
						JOINT newVegas:LeftForeArm
						{
							OFFSET 29.593842 0.000000 -4.673203
							CHANNELS 3 Xrotation Yrotation Zrotation
							JOINT newVegas:LeftHand
							{
								OFFSET 27.832886 0.000000 0.954267
								CHANNELS 3 Xrotation Yrotation Zrotation
								JOINT newVegas:LeftHandThumb1
								{
									OFFSET 4.767456 -2.676666 6.397403
									CHANNELS 3 Xrotation Yrotation Zrotation
									JOINT newVegas:LeftHandThumb2
									{
										OFFSET 6.625809 -0.223526 2.471421
										CHANNELS 3 Xrotation Yrotation Zrotation
										JOINT newVegas:LeftHandThumb3
										{
											OFFSET 6.481201 0.059357 1.536795
											CHANNELS 3 Xrotation Yrotation Zrotation
											End Site
											{
												OFFSET 0.000000 6.661179 0.000000
											}
										}
									}
								}
								JOINT newVegas:LeftHandIndex1
								{
									OFFSET 18.761932 0.178406 4.531118
									CHANNELS 3 Xrotation Yrotation Zrotation
									JOINT newVegas:LeftHandIndex2
									{
										OFFSET 3.171219 -0.350479 0.097670
										CHANNELS 3 Xrotation Yrotation Zrotation
										JOINT newVegas:LeftHandIndex3
										{
											OFFSET 3.807625 -0.034592 0.457391
											CHANNELS 3 Xrotation Yrotation Zrotation
											End Site
											{
												OFFSET 0.000000 3.835159 0.000000
											}
										}
									}
								}
								JOINT newVegas:LeftHandMiddle1
								{
									OFFSET 18.461426 0.243439 -0.695649
									CHANNELS 3 Xrotation Yrotation Zrotation
									JOINT newVegas:LeftHandMiddle2
									{
										OFFSET 3.308960 -0.304459 -0.112251
										CHANNELS 3 Xrotation Yrotation Zrotation
										JOINT newVegas:LeftHandMiddle3
										{
											OFFSET 4.584320 0.057678 -0.330443
											CHANNELS 3 Xrotation Yrotation Zrotation
											End Site
											{
												OFFSET 0.000000 4.596573 0.000000
											}
										}
									}
								}
								JOINT newVegas:LeftHandRing1
								{
									OFFSET 17.563904 -0.015564 -4.860666
									CHANNELS 3 Xrotation Yrotation Zrotation
									JOINT newVegas:LeftHandRing2
									{
										OFFSET 2.582436 -0.710159 -0.544994
										CHANNELS 3 Xrotation Yrotation Zrotation
										JOINT newVegas:LeftHandRing3
										{
											OFFSET 3.050346 0.119141 -0.884829
											CHANNELS 3 Xrotation Yrotation Zrotation
											End Site
											{
												OFFSET 0.000000 3.178314 0.000000
											}
										}
									}
								}
								JOINT newVegas:LeftHandPinky1
								{
									OFFSET 15.713013 -1.058273 -8.049927
									CHANNELS 3 Xrotation Yrotation Zrotation
									JOINT newVegas:LeftHandPinky2
									{
										OFFSET 2.262558 -0.308899 -1.109793
										CHANNELS 3 Xrotation Yrotation Zrotation
										JOINT newVegas:LeftHandPinky3
										{
											OFFSET 2.240669 -0.150864 -1.296448
											CHANNELS 3 Xrotation Yrotation Zrotation
											End Site
											{
												OFFSET 0.000000 2.593094 0.000000
											}
										}
									}
								}
							}
							JOINT newVegas:Left_Sleeve
							{
								OFFSET 0.247482 -0.649780 0.586459
								CHANNELS 3 Xrotation Yrotation Zrotation
								End Site
								{
									OFFSET 0.000000 15.991226 0.000000
								}
							}
							JOINT newVegas:Left_CapeC
							{
								OFFSET 15.944374 -8.608810 -6.393338
								CHANNELS 3 Xrotation Yrotation Zrotation
								JOINT newVegas:Left_CapeC1
								{
									OFFSET 0.000000 -8.688515 0.000000
									CHANNELS 3 Xrotation Yrotation Zrotation
									End Site
									{
										OFFSET 0.000000 8.688515 0.000000
									}
								}
							}
						}
						JOINT newVegas:Left_CapeB
						{
							OFFSET 24.694458 -8.608810 -11.066542
							CHANNELS 3 Xrotation Yrotation Zrotation
							JOINT newVegas:Left_CapeB1
							{
								OFFSET 0.000008 -8.688515 0.000000
								CHANNELS 3 Xrotation Yrotation Zrotation
								End Site
								{
									OFFSET 0.000000 8.688515 0.000000
								}
							}
						}
						JOINT newVegas:Left_CapeA
						{
							OFFSET 3.431450 -8.608810 -11.066542
							CHANNELS 3 Xrotation Yrotation Zrotation
							JOINT newVegas:Left_CapeA1
							{
								OFFSET 0.000000 -8.688515 0.000000
								CHANNELS 3 Xrotation Yrotation Zrotation
								End Site
								{
									OFFSET 0.000000 8.688515 0.000000
								}
							}
						}
					}
				}
				JOINT newVegas:RightShoulder
				{
					OFFSET -15.263037 10.923431 -0.547705
					CHANNELS 3 Xrotation Yrotation Zrotation
					JOINT newVegas:RightArm
					{
						OFFSET -25.438639 -2.830658 -13.032501
						CHANNELS 3 Xrotation Yrotation Zrotation
						JOINT newVegas:RightForeArm
						{
							OFFSET -29.593842 0.000000 -4.673203
							CHANNELS 3 Xrotation Yrotation Zrotation
							JOINT newVegas:RightHand
							{
								OFFSET -27.832886 0.000000 0.954267
								CHANNELS 3 Xrotation Yrotation Zrotation
								JOINT newVegas:RightHandThumb1
								{
									OFFSET -4.767456 -2.676666 6.397403
									CHANNELS 3 Xrotation Yrotation Zrotation
									JOINT newVegas:RightHandThumb2
									{
										OFFSET -6.625809 -0.223526 2.471421
										CHANNELS 3 Xrotation Yrotation Zrotation
										JOINT newVegas:RightHandThumb3
										{
											OFFSET -6.481201 0.059357 1.536795
											CHANNELS 3 Xrotation Yrotation Zrotation
											End Site
											{
												OFFSET 0.000000 6.661179 0.000000
											}
										}
									}
								}
								JOINT newVegas:RightHandIndex1
								{
									OFFSET -18.761932 0.178406 4.531118
									CHANNELS 3 Xrotation Yrotation Zrotation
									JOINT newVegas:RightHandIndex2
									{
										OFFSET -3.171219 -0.350479 0.097670
										CHANNELS 3 Xrotation Yrotation Zrotation
										JOINT newVegas:RightHandIndex3
										{
											OFFSET -3.807625 -0.034592 0.457391
											CHANNELS 3 Xrotation Yrotation Zrotation
											End Site
											{
												OFFSET 0.000000 3.835159 0.000000
											}
										}
									}
								}
								JOINT newVegas:RightHandMiddle1
								{
									OFFSET -18.461426 0.243439 -0.695648
									CHANNELS 3 Xrotation Yrotation Zrotation
									JOINT newVegas:RightHandMiddle2
									{
										OFFSET -3.308960 -0.304459 -0.112251
										CHANNELS 3 Xrotation Yrotation Zrotation
										JOINT newVegas:RightHandMiddle3
										{
											OFFSET -4.584320 0.057678 -0.330443
											CHANNELS 3 Xrotation Yrotation Zrotation
											End Site
											{
												OFFSET 0.000000 4.596573 0.000000
											}
										}
									}
								}
								JOINT newVegas:RightHandRing1
								{
									OFFSET -17.563904 -0.015564 -4.860666
									CHANNELS 3 Xrotation Yrotation Zrotation
									JOINT newVegas:RightHandRing2
									{
										OFFSET -2.582436 -0.710159 -0.544992
										CHANNELS 3 Xrotation Yrotation Zrotation
										JOINT newVegas:RightHandRing3
										{
											OFFSET -3.050346 0.119141 -0.884830
											CHANNELS 3 Xrotation Yrotation Zrotation
											End Site
											{
												OFFSET 0.000000 3.178329 0.000000
											}
										}
									}
								}
								JOINT newVegas:RightHandPinky1
								{
									OFFSET -15.713013 -1.058273 -8.049929
									CHANNELS 3 Xrotation Yrotation Zrotation
									JOINT newVegas:RightHandPinky2
									{
										OFFSET -2.262558 -0.308899 -1.109791
										CHANNELS 3 Xrotation Yrotation Zrotation
										JOINT newVegas:RightHandPinky3
										{
											OFFSET -2.240669 -0.150864 -1.296448
											CHANNELS 3 Xrotation Yrotation Zrotation
											End Site
											{
												OFFSET 0.000000 2.593094 0.000000
											}
										}
									}
								}
							}
							JOINT newVegas:Right_CapeC
							{
								OFFSET -15.944374 -8.608810 -6.393338
								CHANNELS 3 Xrotation Yrotation Zrotation
								JOINT newVegas:Right_CapeC1
								{
									OFFSET 0.000000 -8.688515 0.000000
									CHANNELS 3 Xrotation Yrotation Zrotation
									End Site
									{
										OFFSET 0.000000 8.688515 0.000000
									}
								}
							}
							JOINT newVegas:Right_Sleeve
							{
								OFFSET -0.247482 -0.649963 0.586505
								CHANNELS 3 Xrotation Yrotation Zrotation
								End Site
								{
									OFFSET 0.000000 15.991287 0.000000
								}
							}
						}
						JOINT newVegas:Right_CapeA
						{
							OFFSET -3.431450 -8.608810 -11.066542
							CHANNELS 3 Xrotation Yrotation Zrotation
							JOINT newVegas:Right_CapeA1
							{
								OFFSET 0.000000 -8.688515 0.000000
								CHANNELS 3 Xrotation Yrotation Zrotation
								End Site
								{
									OFFSET 0.000000 8.688515 0.000000
								}
							}
						}
						JOINT newVegas:Right_CapeB
						{
							OFFSET -24.694321 -8.608810 -11.066542
							CHANNELS 3 Xrotation Yrotation Zrotation
							JOINT newVegas:Right_CapeB1
							{
								OFFSET -0.000015 -8.688515 0.000002
								CHANNELS 3 Xrotation Yrotation Zrotation
								End Site
								{
									OFFSET 0.000000 8.688515 0.000000
								}
							}
						}
					}
				}
				JOINT newVegas:Left_Collar
				{
					OFFSET 18.625118 8.655487 8.828113
					CHANNELS 3 Xrotation Yrotation Zrotation
					JOINT newVegas:Left_Collar1
					{
						OFFSET 14.783401 10.540359 -1.259481
						CHANNELS 3 Xrotation Yrotation Zrotation
						End Site
						{
							OFFSET 0.000000 18.199844 0.000000
						}
					}
				}
				JOINT newVegas:Collar_Back
				{
					OFFSET 0.000000 15.630692 -20.132616
					CHANNELS 3 Xrotation Yrotation Zrotation
					End Site
					{
						OFFSET 0.000000 22.523010 0.000000
					}
				}
				JOINT newVegas:Left_Peck
				{
					OFFSET 17.239555 -5.132629 25.482586
					CHANNELS 3 Xrotation Yrotation Zrotation
					End Site
					{
						OFFSET 0.000000 22.523026 0.000000
					}
				}
				JOINT newVegas:Right_Peck
				{
					OFFSET -17.239599 -5.132195 25.482594
					CHANNELS 3 Xrotation Yrotation Zrotation
					End Site
					{
						OFFSET 0.000000 22.523018 0.000000
					}
				}
				JOINT newVegas:Right_Collar
				{
					OFFSET -18.625099 8.655807 8.828094
					CHANNELS 3 Xrotation Yrotation Zrotation
					JOINT newVegas:Right_Collar1
					{
						OFFSET -14.783405 10.539993 -1.259501
						CHANNELS 3 Xrotation Yrotation Zrotation
						End Site
						{
							OFFSET 0.000000 18.199646 0.000000
						}
					}
				}
			}
		}
		JOINT newVegas:Belly
		{
			OFFSET 0.000000 -6.540390 9.014252
			CHANNELS 3 Xrotation Yrotation Zrotation
			End Site
			{
				OFFSET 0.000000 11.566666 0.000000
			}
		}
	}
	JOINT newVegas:ElvisFacialAnim_Joint
	{
		OFFSET 1.000000 -95.330055 -8.825774
		CHANNELS 3 Xrotation Yrotation Zrotation
		End Site
		{
			OFFSET 0.000000 35.315800 0.000000
		}
	}
}
MOTION
Frames: 4
Frame Time: 0.033333
-10.595755 89.823814 73.875214 -16.271566 17.390077 0.345901 -0.000002 -0.000000 -0.000000 -11.928265 24.159945 -5.500063 56.331203 1.446223 -10.613824 0.191830 7.003180 11.271959 -0.000001 -0.000002 0.000001 0.000000 0.000002 0.000000 -25.502255 -4.757314 4.987709 20.543256 -10.804965 0.899132 28.505742 3.713460 16.392258 0.000001 0.000000 0.000003 0.000002 0.000000 -0.000000 24.075374 -7.354895 1.706874 4.628500 -2.057673 0.607319 4.625632 -2.052284 0.722065 -0.269606 0.284099 -1.429944 -0.269600 0.284101 -1.429944 -0.000002 -0.000000 0.000000 -0.269606 0.284098 -1.429946 -0.269607 0.284101 -1.429946 -0.000001 -0.000000 0.000001 -0.000002 -0.000000 0.000000 -17.332402 -37.382616 -19.383124 5.137179 -31.060958 -51.738307 -0.000013 -49.449726 -0.000015 8.268608 -17.952184 20.801409 -4.225640 -7.563705 -18.485868 4.370120 21.372364 -3.157371 0.000001 0.000001 -0.000000 1.754328 8.084073 -17.306839 4.389143 3.886252 -36.097277 0.000000 -0.000000 0.000000 0.203286 4.651568 -26.117617 -2.640123 -0.607667 -42.166996 -0.000000 0.000002 0.000001 -5.109019 -5.403851 -21.198961 -13.553091 5.496493 -59.151009 0.000000 -0.000000 -0.000000 -14.936563 -16.238358 -33.464580 -23.006405 7.984186 -45.446846 -0.000000 0.000000 0.000000 0.000001 -0.000001 -0.000003 0.000001 -0.000001 -0.000003 0.000001 -0.000001 -0.000003 0.000002 0.000000 0.000002 0.000002 0.000000 0.000000 0.000002 0.000000 0.000002 0.000002 0.000000 0.000002 1.053453 18.358049 6.161554 -16.015655 -7.630418 56.240888 0.000004 -7.025528 0.000020 30.773564 17.590162 10.158163 -5.008164 13.471720 18.075226 2.800753 -23.088543 2.806144 0.000000 0.000000 0.000000 0.792395 -7.456747 -4.720975 1.938021 -4.721716 14.047228 -0.000001 0.000000 -0.000000 0.092153 -3.605485 3.261586 -2.189351 1.747196 30.033776 0.000000 -0.000003 0.000002 -1.430208 7.305141 1.146704 -12.900675 -2.746247 51.254972 0.000002 0.000000 0.000001 -11.409843 19.196207 23.710715 -10.176874 1.970163 17.875647 -0.000002 0.000001 -0.000000 0.000000 0.000001 -0.000001 0.000000 0.000001 -0.000001 0.000000 0.000001 -0.000001 0.000001 -0.000001 0.000001 0.000001 -0.000001 0.000001 0.000001 -0.000001 0.000001 0.000001 -0.000001 0.000001 0.000001 0.000000 -0.000000 -0.000000 0.000000 -0.000000 0.000001 0.000000 -0.000000 0.000001 0.000000 -0.000000 0.000001 0.000000 -0.000000 0.000001 0.000000 -0.000000 -0.000000 0.000000 -0.000000 -0.000001 0.000001 0.000001 -0.000002 -0.000000 -0.000000 
-9.770336 88.758766 75.666794 -17.940054 20.763645 1.787952 -0.000002 -0.000000 -0.000000 -6.406068 28.146467 -9.458575 52.079772 -0.587690 -11.037360 0.777693 2.452054 16.619013 0.000000 0.000001 -0.000001 0.000000 0.000003 -0.000001 -26.950494 -5.449575 9.268242 30.980044 -12.621804 0.716115 16.653815 0.707621 -0.714554 0.000000 0.000000 0.000000 0.000001 -0.000000 -0.000001 24.113158 -8.400724 2.187226 4.586156 -2.423236 0.604553 4.585114 -2.418353 0.740049 -0.317065 0.252250 -1.438498 -0.317079 0.252252 -1.438500 0.000000 0.000000 0.000000 -0.317138 0.252239 -1.438499 -0.317000 0.252261 -1.438504 0.000000 0.000000 -0.000000 0.000000 0.000000 0.000000 -17.989217 -39.228710 -20.596630 7.984489 -36.251342 -44.660688 0.000017 -59.708066 0.000022 6.015492 -17.751704 26.789144 -4.192016 -8.044503 -18.413731 4.201994 21.332904 -3.146078 -0.000002 0.000000 0.000001 1.730299 8.045771 -17.171937 4.263426 3.967659 -34.845767 -0.000002 -0.000003 0.000000 0.181223 4.613590 -25.886502 -2.652859 -0.590022 -42.461319 -0.000001 0.000003 -0.000000 -5.119804 -5.397016 -21.262391 -13.658286 5.762251 -60.107748 0.000002 -0.000001 -0.000001 -15.339206 -15.928216 -34.596906 -23.367293 8.422862 -46.375174 -0.000000 0.000000 0.000004 -0.000002 0.000002 -0.000001 -0.000002 0.000002 -0.000001 -0.000002 0.000002 -0.000001 0.000002 0.000000 -0.000001 0.000002 0.000000 -0.000001 0.000002 0.000000 -0.000001 0.000002 0.000000 -0.000001 0.961713 18.659037 6.888242 -9.845236 -14.870174 52.332418 -0.000001 -6.165485 0.000009 35.687687 13.322699 11.114062 -5.002807 13.472254 18.072549 2.793412 -23.086818 2.804649 -0.000000 -0.000001 0.000000 0.818268 -7.439713 -3.759091 1.949808 -4.717056 14.152652 0.000001 0.000001 0.000002 0.078747 -3.599123 4.204040 -2.231427 1.726839 30.681917 0.000000 -0.000001 0.000000 -1.633092 7.285817 2.141442 -13.047384 -2.966668 52.154232 0.000002 0.000001 0.000001 -11.891014 18.970184 24.909396 -11.436160 1.471421 20.258532 0.000001 -0.000001 -0.000001 -0.000000 0.000001 0.000002 -0.000000 0.000001 0.000002 -0.000000 0.000001 0.000004 -0.000001 0.000000 0.000003 -0.000001 0.000000 0.000003 -0.000001 0.000000 0.000003 -0.000001 0.000000 0.000005 0.000002 -0.000000 0.000000 0.000002 -0.000000 -0.000000 0.000002 -0.000000 0.000000 0.000002 -0.000000 0.000000 0.000002 -0.000000 0.000000 0.000002 -0.000000 0.000000 0.000002 -0.000000 -0.000000 -0.000000 0.000000 0.000000 -0.000002 -0.000000 -0.000000 
-8.970520 86.685509 77.706520 -19.002268 23.325407 2.827958 0.000002 0.000002 -0.000000 4.293956 31.105416 -20.546348 43.858888 1.255276 -9.626361 -3.487235 2.849865 34.326342 -0.000001 0.000000 0.000000 0.000000 0.000001 0.000002 -28.155949 -6.603006 10.936029 40.885249 -12.871964 0.692638 5.113305 -1.019871 -6.326167 -0.000000 0.000000 0.000000 0.000000 0.000000 0.000000 23.726074 -9.058834 2.938202 4.464999 -2.663318 0.644947 4.464234 -2.655843 0.788882 -0.379531 0.209170 -1.462894 -0.379533 0.209173 -1.462894 0.000000 0.000000 -0.000000 -0.379529 0.209174 -1.462895 -0.379461 0.209172 -1.462893 0.000001 -0.000000 -0.000001 0.000000 0.000000 -0.000000 -17.778431 -36.795021 -23.079677 9.156723 -42.916421 -36.565834 -0.000029 -65.864894 -0.000030 6.923667 -19.210481 30.991188 -4.140829 -8.787090 -18.299407 3.942095 21.272073 -3.128934 0.000003 0.000000 0.000000 1.690159 7.985864 -16.917789 4.060725 4.090923 -32.862759 -0.000003 -0.000001 0.000001 0.147059 4.552899 -25.481761 -2.671752 -0.563476 -42.903082 0.000000 0.000001 -0.000000 -5.129475 -5.390766 -21.319660 -13.812476 6.177179 -61.589312 -0.000001 0.000001 0.000003 -15.942128 -15.438072 -36.322198 -23.913406 9.114385 -47.811328 -0.000001 0.000000 0.000000 0.000000 0.000001 -0.000000 0.000000 0.000001 -0.000000 0.000000 0.000001 -0.000000 0.000000 0.000000 -0.000002 0.000000 0.000000 -0.000004 0.000000 0.000000 -0.000002 0.000000 0.000000 -0.000002 0.977253 18.119915 6.726975 -6.856784 -19.006861 49.084489 -0.000008 -10.937279 -0.000011 46.030376 14.338840 5.820632 -4.998744 13.472591 18.069817 2.786949 -23.085093 2.803389 0.000000 0.000000 -0.000000 0.859556 -7.420538 -2.280969 2.010794 -4.692601 14.699144 0.000000 0.000002 0.000003 0.058684 -3.594557 5.669378 -2.298989 1.692902 31.730320 -0.000001 0.000001 -0.000001 -1.936904 7.250023 3.634753 -13.249965 -3.283803 53.431525 0.000001 0.000001 -0.000000 -12.528210 18.651894 26.513471 -13.100310 0.716481 23.455259 0.000001 0.000001 0.000000 -0.000001 0.000000 -0.000002 -0.000001 0.000000 -0.000002 -0.000001 0.000000 -0.000000 0.000000 0.000000 -0.000001 0.000000 0.000000 -0.000001 0.000000 0.000000 -0.000001 0.000000 0.000000 0.000001 -0.000000 -0.000000 0.000000 0.000000 -0.000000 0.000000 -0.000000 -0.000000 0.000000 -0.000000 -0.000000 0.000000 -0.000000 -0.000000 0.000000 -0.000000 -0.000000 0.000000 0.000000 -0.000000 0.000000 -0.000000 0.000000 0.000000 0.000002 0.000002 -0.000000 
-8.383323 84.865387 79.494293 -19.654276 24.967193 3.360134 -0.000001 -0.000002 -0.000000 3.881205 32.587331 -19.738892 48.115483 5.197731 -9.751802 -7.973325 7.287412 34.660160 0.000001 0.000001 -0.000000 0.000000 -0.000001 0.000000 -29.365456 -8.572810 11.095162 48.958478 -13.483467 2.015315 -3.087777 -0.928637 -10.384533 0.000000 0.000001 -0.000000 0.000000 0.000000 -0.000000 23.246025 -10.261656 3.466926 4.466455 -3.013167 0.704105 4.467520 -2.998341 0.866023 -0.460787 0.216331 -1.413816 -0.460787 0.216328 -1.413815 0.000000 -0.000000 -0.000000 -0.460785 0.216331 -1.413816 -0.460716 0.216330 -1.413818 -0.000001 0.000000 0.000000 0.000000 -0.000000 -0.000000 -15.963884 -32.756805 -23.202520 3.815675 -47.881832 -35.303991 -0.000068 -65.510421 -0.000088 11.754221 -22.381454 32.722886 -4.083447 -9.634857 -18.164579 3.645260 21.202908 -3.110115 0.000002 0.000001 -0.000001 1.635725 7.915108 -16.490384 3.808846 4.231164 -30.452371 0.000002 0.000001 0.000000 0.107237 4.477992 -24.876684 -2.691478 -0.535324 -43.368409 0.000002 0.000000 -0.000000 -5.119376 -5.396347 -21.262700 -13.976263 6.658233 -63.290418 0.000001 -0.000001 0.000002 -16.593550 -14.871900 -38.231861 -24.522000 9.927635 -49.461409 -0.000001 0.000001 0.000001 0.000000 -0.000000 -0.000001 0.000000 -0.000000 -0.000001 0.000000 -0.000000 -0.000001 0.000001 0.000001 -0.000000 0.000001 0.000001 -0.000002 0.000001 0.000001 -0.000000 0.000001 0.000001 -0.000000 1.154309 16.208794 4.680100 -0.236267 -22.822476 50.878848 -0.000007 -4.713931 0.000007 56.152126 14.274559 0.654335 -4.995930 13.472661 18.067204 2.781370 -23.083406 2.802348 0.000002 0.000000 0.000002 0.912530 -7.399272 -0.415845 2.109855 -4.651456 15.591034 -0.000001 -0.000002 -0.000001 0.034368 -3.593949 7.527402 -2.385339 1.647223 33.085180 0.000002 -0.000000 -0.000001 -2.314964 7.194133 5.500108 -13.488311 -3.678073 54.994262 -0.000003 0.000001 0.000000 -13.269828 18.252851 28.406835 -15.025252 -0.302475 27.235280 -0.000001 0.000000 0.000001 -0.000002 0.000001 -0.000002 -0.000002 0.000001 -0.000002 -0.000002 0.000001 -0.000001 -0.000001 -0.000000 0.000000 -0.000001 -0.000000 0.000000 -0.000001 -0.000000 0.000000 -0.000001 -0.000000 0.000002 0.000000 -0.000000 0.000000 0.000000 -0.000000 0.000000 0.000000 -0.000000 0.000000 0.000000 -0.000000 0.000000 0.000000 -0.000000 0.000000 0.000000 -0.000000 0.000000 0.000000 -0.000000 0.000000 -0.000000 0.000000 0.000000 -0.000000 -0.000002 -0.000000 
